<svg width="60" height="59" viewBox="0 0 60 59" fill="none" xmlns="http://www.w3.org/2000/svg">
<rect opacity="0.05" width="60" height="58.7216" rx="14" fill="#22B07D"/>
<path fill-rule="evenodd" clip-rule="evenodd" d="M22.5205 25.985L22.5215 26.2892L37.4696 26.2697V25.9273C37.4272 23.8242 36.349 22.7207 34.4139 22.5564L34.4148 23.3096C34.4148 23.7303 34.0801 24.0638 33.6556 24.0638C33.2212 24.0648 32.8944 23.7322 32.8944 23.3116L32.8934 22.5192L27.0286 22.5271L27.0296 23.3184C27.0296 23.74 26.7048 24.0726 26.2704 24.0726C25.8359 24.0736 25.5091 23.742 25.5091 23.3204L25.5082 22.5672C23.5829 22.756 22.5175 23.8633 22.5205 25.985ZM34.0485 29.9135C33.5944 29.9232 33.2389 30.2852 33.2399 30.7351V30.7459C33.2498 31.1959 33.625 31.5373 34.0801 31.5275C34.5244 31.5167 34.8789 31.144 34.869 30.6941C34.8483 30.2637 34.4918 29.9125 34.0485 29.9135ZM33.234 34.2968C33.2241 33.8468 33.5884 33.4741 34.0426 33.4634H34.0525C34.5165 33.4634 34.8927 33.8341 34.8927 34.2939C34.8937 34.7536 34.5185 35.1263 34.0554 35.1273C33.6013 35.1175 33.235 34.7468 33.234 34.2968ZM29.9807 29.9087C29.5266 29.9282 29.1711 30.3009 29.1721 30.7509C29.1919 31.2009 29.568 31.5521 30.0222 31.5325C30.4665 31.512 30.821 31.1402 30.8012 30.6903C30.7904 30.2501 30.425 29.9077 29.9807 29.9087ZM29.1761 34.3018C29.1761 33.8518 29.5305 33.4801 29.9847 33.4595C30.429 33.4586 30.7953 33.8009 30.8052 34.2402C30.8259 34.6911 30.4705 35.0628 30.0262 35.0834C29.572 35.1029 29.1968 34.7518 29.1761 34.3018ZM25.912 29.9428C25.4578 29.9624 25.1034 30.3351 25.1043 30.7851C25.1241 31.2351 25.5003 31.5872 25.9544 31.5667C26.3987 31.5471 26.7532 31.1744 26.7324 30.7244C26.7226 30.2842 26.3573 29.9419 25.912 29.9428ZM25.1083 34.3065C25.1073 33.8566 25.4627 33.4839 25.9169 33.4643C26.3612 33.4633 26.7275 33.8057 26.7374 34.2459C26.7581 34.6959 26.4037 35.0686 25.9584 35.0881V35.0881C25.5042 35.1087 25.129 34.7565 25.1083 34.3065ZM34.4109 20.3261C34.4099 19.8957 34.0742 19.5729 33.6497 19.5739C33.2152 19.5748 32.8894 19.8976 32.8904 20.328L32.8914 21.0128L27.0267 21.0206L27.0257 20.3359C27.0247 19.9055 26.6989 19.5827 26.2644 19.5836C25.83 19.5836 25.5042 19.9074 25.5052 20.3378L25.5062 21.0715C22.7515 21.319 20.9961 23.1511 21 25.987L21.0109 34.1364C21.0148 37.2167 23.0112 39.1516 26.1519 39.1477L33.8718 39.1379C37.0322 39.133 39.0039 37.2431 39 34.1716L38.9891 25.9253C38.9862 23.1081 37.1665 21.271 34.4119 21.0597V21.0597L34.4109 20.3261Z" fill="#22B07D"/>
</svg>
